<mxfile host="app.diagrams.net" modified="2023-06-07T16:17:36.926Z" agent="Mozilla/5.0 (Windows NT 10.0; Win64; x64) AppleWebKit/537.36 (KHTML, like Gecko) Chrome/112.0.0.0 Safari/537.36 OPR/98.0.0.0" etag="tthcQt3WlUNu6v11ZQ_b" version="21.3.7" type="github">
  <diagram name="Página-1" id="EO1i5Yh0TXApXWwIkE9N">
    <mxGraphModel dx="2235" dy="1994" grid="1" gridSize="10" guides="1" tooltips="1" connect="1" arrows="1" fold="1" page="1" pageScale="1" pageWidth="827" pageHeight="1169" math="0" shadow="0">
      <root>
        <mxCell id="0" />
        <mxCell id="1" parent="0" />
        <mxCell id="UNjLjwTfi98Qa-1zKaNa-1" value="&lt;font style=&quot;font-size: 18px;&quot;&gt;Medio de prensa&lt;/font&gt;" style="rounded=0;whiteSpace=wrap;html=1;" parent="1" vertex="1">
          <mxGeometry x="600" y="120" width="160" height="60" as="geometry" />
        </mxCell>
        <mxCell id="UNjLjwTfi98Qa-1zKaNa-3" value="&lt;span style=&quot;font-size: 18px;&quot;&gt;Ubicación&lt;/span&gt;" style="rounded=0;whiteSpace=wrap;html=1;" parent="1" vertex="1">
          <mxGeometry x="280" y="400" width="160" height="60" as="geometry" />
        </mxCell>
        <mxCell id="UNjLjwTfi98Qa-1zKaNa-8" value="&lt;span style=&quot;font-size: 18px;&quot;&gt;Fundador&lt;/span&gt;" style="rounded=0;whiteSpace=wrap;html=1;" parent="1" vertex="1">
          <mxGeometry x="890" y="400" width="160" height="60" as="geometry" />
        </mxCell>
        <mxCell id="UNjLjwTfi98Qa-1zKaNa-9" value="&lt;span style=&quot;font-size: 18px;&quot;&gt;Red social&lt;/span&gt;" style="rounded=0;whiteSpace=wrap;html=1;" parent="1" vertex="1">
          <mxGeometry x="260" y="-100" width="160" height="60" as="geometry" />
        </mxCell>
        <mxCell id="UNjLjwTfi98Qa-1zKaNa-10" value="&lt;span style=&quot;font-size: 18px;&quot;&gt;Categoría&lt;/span&gt;" style="rounded=0;whiteSpace=wrap;html=1;" parent="1" vertex="1">
          <mxGeometry x="890" y="-100" width="160" height="60" as="geometry" />
        </mxCell>
        <mxCell id="rar-CTMczom2aFT5S0ZN-1" value="tiene" style="rhombus;whiteSpace=wrap;html=1;" vertex="1" parent="1">
          <mxGeometry x="440" y="10" width="100" height="80" as="geometry" />
        </mxCell>
        <mxCell id="rar-CTMczom2aFT5S0ZN-2" value="abarca" style="rhombus;whiteSpace=wrap;html=1;" vertex="1" parent="1">
          <mxGeometry x="810" width="100" height="80" as="geometry" />
        </mxCell>
        <mxCell id="rar-CTMczom2aFT5S0ZN-3" value="se_ubica" style="rhombus;whiteSpace=wrap;html=1;" vertex="1" parent="1">
          <mxGeometry x="440" y="240" width="100" height="80" as="geometry" />
        </mxCell>
        <mxCell id="rar-CTMczom2aFT5S0ZN-4" value="fundada_por" style="rhombus;whiteSpace=wrap;html=1;" vertex="1" parent="1">
          <mxGeometry x="810" y="240" width="100" height="80" as="geometry" />
        </mxCell>
        <mxCell id="rar-CTMczom2aFT5S0ZN-5" value="" style="endArrow=none;html=1;rounded=0;entryX=1;entryY=1;entryDx=0;entryDy=0;exitX=0;exitY=0;exitDx=0;exitDy=0;" edge="1" parent="1" source="UNjLjwTfi98Qa-1zKaNa-1" target="rar-CTMczom2aFT5S0ZN-1">
          <mxGeometry width="50" height="50" relative="1" as="geometry">
            <mxPoint x="620" y="130" as="sourcePoint" />
            <mxPoint x="670" y="80" as="targetPoint" />
          </mxGeometry>
        </mxCell>
        <mxCell id="rar-CTMczom2aFT5S0ZN-8" value="" style="endArrow=none;html=1;rounded=0;entryX=1;entryY=1;entryDx=0;entryDy=0;exitX=0;exitY=0;exitDx=0;exitDy=0;" edge="1" parent="1" source="rar-CTMczom2aFT5S0ZN-1" target="UNjLjwTfi98Qa-1zKaNa-9">
          <mxGeometry width="50" height="50" relative="1" as="geometry">
            <mxPoint x="620" y="130" as="sourcePoint" />
            <mxPoint x="670" y="80" as="targetPoint" />
          </mxGeometry>
        </mxCell>
        <mxCell id="rar-CTMczom2aFT5S0ZN-10" value="" style="endArrow=none;html=1;rounded=0;entryX=0;entryY=1;entryDx=0;entryDy=0;exitX=1;exitY=0;exitDx=0;exitDy=0;" edge="1" parent="1" source="rar-CTMczom2aFT5S0ZN-2" target="UNjLjwTfi98Qa-1zKaNa-10">
          <mxGeometry width="50" height="50" relative="1" as="geometry">
            <mxPoint x="620" y="130" as="sourcePoint" />
            <mxPoint x="670" y="80" as="targetPoint" />
          </mxGeometry>
        </mxCell>
        <mxCell id="rar-CTMczom2aFT5S0ZN-11" value="" style="endArrow=none;html=1;rounded=0;entryX=0;entryY=1;entryDx=0;entryDy=0;exitX=1;exitY=0;exitDx=0;exitDy=0;" edge="1" parent="1" source="UNjLjwTfi98Qa-1zKaNa-1" target="rar-CTMczom2aFT5S0ZN-2">
          <mxGeometry width="50" height="50" relative="1" as="geometry">
            <mxPoint x="620" y="130" as="sourcePoint" />
            <mxPoint x="670" y="80" as="targetPoint" />
          </mxGeometry>
        </mxCell>
        <mxCell id="rar-CTMczom2aFT5S0ZN-12" value="" style="endArrow=none;html=1;rounded=0;exitX=1;exitY=0;exitDx=0;exitDy=0;entryX=0;entryY=1;entryDx=0;entryDy=0;" edge="1" parent="1" source="rar-CTMczom2aFT5S0ZN-3" target="UNjLjwTfi98Qa-1zKaNa-1">
          <mxGeometry width="50" height="50" relative="1" as="geometry">
            <mxPoint x="620" y="130" as="sourcePoint" />
            <mxPoint x="670" y="80" as="targetPoint" />
          </mxGeometry>
        </mxCell>
        <mxCell id="rar-CTMczom2aFT5S0ZN-13" value="" style="endArrow=none;html=1;rounded=0;exitX=1;exitY=0;exitDx=0;exitDy=0;entryX=0;entryY=1;entryDx=0;entryDy=0;" edge="1" parent="1" source="UNjLjwTfi98Qa-1zKaNa-3" target="rar-CTMczom2aFT5S0ZN-3">
          <mxGeometry width="50" height="50" relative="1" as="geometry">
            <mxPoint x="620" y="190" as="sourcePoint" />
            <mxPoint x="670" y="140" as="targetPoint" />
          </mxGeometry>
        </mxCell>
        <mxCell id="rar-CTMczom2aFT5S0ZN-14" value="" style="endArrow=none;html=1;rounded=0;entryX=1;entryY=1;entryDx=0;entryDy=0;exitX=0;exitY=0;exitDx=0;exitDy=0;" edge="1" parent="1" source="rar-CTMczom2aFT5S0ZN-4" target="UNjLjwTfi98Qa-1zKaNa-1">
          <mxGeometry width="50" height="50" relative="1" as="geometry">
            <mxPoint x="620" y="230" as="sourcePoint" />
            <mxPoint x="670" y="180" as="targetPoint" />
          </mxGeometry>
        </mxCell>
        <mxCell id="rar-CTMczom2aFT5S0ZN-15" value="" style="endArrow=none;html=1;rounded=0;exitX=0;exitY=0;exitDx=0;exitDy=0;entryX=1;entryY=1;entryDx=0;entryDy=0;" edge="1" parent="1" source="UNjLjwTfi98Qa-1zKaNa-8" target="rar-CTMczom2aFT5S0ZN-4">
          <mxGeometry width="50" height="50" relative="1" as="geometry">
            <mxPoint x="620" y="230" as="sourcePoint" />
            <mxPoint x="670" y="180" as="targetPoint" />
          </mxGeometry>
        </mxCell>
        <mxCell id="rar-CTMczom2aFT5S0ZN-16" value="Nombre" style="ellipse;whiteSpace=wrap;html=1;" vertex="1" parent="1">
          <mxGeometry x="815" y="470" width="90" height="40" as="geometry" />
        </mxCell>
        <mxCell id="rar-CTMczom2aFT5S0ZN-17" value="Apellido" style="ellipse;whiteSpace=wrap;html=1;" vertex="1" parent="1">
          <mxGeometry x="920" y="480" width="90" height="40" as="geometry" />
        </mxCell>
        <mxCell id="rar-CTMczom2aFT5S0ZN-18" value="Nombre" style="ellipse;whiteSpace=wrap;html=1;" vertex="1" parent="1">
          <mxGeometry x="130" y="-140" width="90" height="40" as="geometry" />
        </mxCell>
        <mxCell id="rar-CTMczom2aFT5S0ZN-19" value="Usuario" style="ellipse;whiteSpace=wrap;html=1;" vertex="1" parent="1">
          <mxGeometry x="210" y="-180" width="90" height="40" as="geometry" />
        </mxCell>
        <mxCell id="rar-CTMczom2aFT5S0ZN-20" value="Seguidores" style="ellipse;whiteSpace=wrap;html=1;" vertex="1" parent="1">
          <mxGeometry x="315" y="-190" width="90" height="40" as="geometry" />
        </mxCell>
        <mxCell id="rar-CTMczom2aFT5S0ZN-21" value="act_seguidores" style="ellipse;whiteSpace=wrap;html=1;" vertex="1" parent="1">
          <mxGeometry x="414" y="-170" width="106" height="50" as="geometry" />
        </mxCell>
        <mxCell id="rar-CTMczom2aFT5S0ZN-22" value="nombre" style="ellipse;whiteSpace=wrap;html=1;" vertex="1" parent="1">
          <mxGeometry x="815" y="-160" width="90" height="40" as="geometry" />
        </mxCell>
        <mxCell id="rar-CTMczom2aFT5S0ZN-23" value="nombre" style="ellipse;whiteSpace=wrap;html=1;" vertex="1" parent="1">
          <mxGeometry x="940" y="-170" width="90" height="40" as="geometry" />
        </mxCell>
      </root>
    </mxGraphModel>
  </diagram>
</mxfile>
